<svg width="129" height="78" viewBox="0 0 129 78" fill="none" xmlns="http://www.w3.org/2000/svg">
<path d="M40.3842 63.5261L38.0448 72.5H35.3987L33.9669 66.5941L32.4841 72.5H29.8379L27.5625 63.5261H29.9018L31.1929 70.0584L32.7909 63.5261H35.1941L36.7281 70.0584L38.032 63.5261H40.3842ZM48.5241 65.3669V72.5H46.3381V71.5285C46.1166 71.8438 45.814 72.0995 45.4305 72.2955C45.0555 72.483 44.6379 72.5767 44.1777 72.5767C43.6323 72.5767 43.1508 72.4574 42.7332 72.2188C42.3156 71.9716 41.9918 71.6179 41.7617 71.1577C41.5316 70.6975 41.4165 70.1564 41.4165 69.5343V65.3669H43.5897V69.2402C43.5897 69.7175 43.7133 70.0882 43.9604 70.3524C44.2076 70.6166 44.5399 70.7487 44.9575 70.7487C45.3836 70.7487 45.7203 70.6166 45.9674 70.3524C46.2146 70.0882 46.3381 69.7175 46.3381 69.2402V65.3669H48.5241ZM54.4406 65.2902C55.2758 65.2902 55.9405 65.5629 56.4348 66.1083C56.9376 66.6452 57.189 67.3867 57.189 68.3326V72.5H55.0158V68.6266C55.0158 68.1494 54.8923 67.7787 54.6451 67.5145C54.398 67.2503 54.0656 67.1182 53.648 67.1182C53.2304 67.1182 52.8981 67.2503 52.6509 67.5145C52.4038 67.7787 52.2802 68.1494 52.2802 68.6266V72.5H50.0942V65.3669H52.2802V66.3128C52.5018 65.9975 52.8001 65.7504 53.175 65.5714C53.55 65.3839 53.9719 65.2902 54.4406 65.2902ZM58.2734 68.9207C58.2734 68.1877 58.4098 67.5443 58.6825 66.9904C58.9637 66.4364 59.3429 66.0103 59.8202 65.712C60.2974 65.4138 60.8301 65.2646 61.4181 65.2646C61.8868 65.2646 62.3129 65.3626 62.6964 65.5586C63.0885 65.7546 63.3953 66.0188 63.6169 66.3512V63.0403H65.8028V72.5H63.6169V71.4773C63.4123 71.8182 63.1183 72.0909 62.7348 72.2955C62.3598 72.5 61.9209 72.6023 61.4181 72.6023C60.8301 72.6023 60.2974 72.4531 59.8202 72.1548C59.3429 71.848 58.9637 71.4177 58.6825 70.8637C58.4098 70.3013 58.2734 69.6536 58.2734 68.9207ZM63.6169 68.9334C63.6169 68.388 63.4635 67.9576 63.1567 67.6423C62.8584 67.327 62.4919 67.1693 62.0573 67.1693C61.6226 67.1693 61.2519 67.327 60.9451 67.6423C60.6468 67.9491 60.4977 68.3752 60.4977 68.9207C60.4977 69.4661 60.6468 69.9007 60.9451 70.2246C61.2519 70.5399 61.6226 70.6975 62.0573 70.6975C62.4919 70.6975 62.8584 70.5399 63.1567 70.2246C63.4635 69.9092 63.6169 69.4789 63.6169 68.9334ZM74.1083 68.8184C74.1083 69.0229 74.0955 69.236 74.0699 69.4576H69.1228C69.1569 69.9007 69.2975 70.2416 69.5446 70.4802C69.8003 70.7103 70.1114 70.8254 70.4778 70.8254C71.0232 70.8254 71.4025 70.5953 71.6155 70.1351H73.9421C73.8228 70.6038 73.6055 71.0257 73.2902 71.4006C72.9834 71.7756 72.5956 72.0696 72.1269 72.2827C71.6582 72.4957 71.134 72.6023 70.5545 72.6023C69.8557 72.6023 69.2336 72.4531 68.6882 72.1548C68.1427 71.8566 67.7166 71.4305 67.4098 70.8765C67.103 70.3226 66.9496 69.6749 66.9496 68.9334C66.9496 68.192 67.0988 67.5443 67.397 66.9904C67.7038 66.4364 68.1299 66.0103 68.6754 65.712C69.2208 65.4138 69.8472 65.2646 70.5545 65.2646C71.2448 65.2646 71.8584 65.4095 72.3953 65.6992C72.9322 65.989 73.3498 66.4023 73.6481 66.9392C73.9549 67.4761 74.1083 68.1025 74.1083 68.8184ZM71.8712 68.2431C71.8712 67.8682 71.7434 67.5699 71.4877 67.3483C71.232 67.1267 70.9125 67.0159 70.529 67.0159C70.1625 67.0159 69.8514 67.1225 69.5958 67.3355C69.3486 67.5486 69.1952 67.8511 69.1356 68.2431H71.8712ZM77.4475 66.5557C77.7031 66.1637 78.0227 65.8569 78.4062 65.6353C78.7897 65.4052 79.2158 65.2902 79.6845 65.2902V67.604H79.0837C78.5383 67.604 78.1292 67.7233 77.8565 67.9619C77.5838 68.192 77.4475 68.6011 77.4475 69.1891V72.5H75.2615V65.3669H77.4475V66.5557ZM82.9153 66.3768C83.1284 66.0444 83.4224 65.7759 83.7974 65.5714C84.1724 65.3669 84.6113 65.2646 85.1141 65.2646C85.7021 65.2646 86.2348 65.4138 86.712 65.712C87.1892 66.0103 87.5642 66.4364 87.8369 66.9904C88.1182 67.5443 88.2588 68.1877 88.2588 68.9207C88.2588 69.6536 88.1182 70.3013 87.8369 70.8637C87.5642 71.4177 87.1892 71.848 86.712 72.1548C86.2348 72.4531 85.7021 72.6023 85.1141 72.6023C84.6198 72.6023 84.1809 72.5 83.7974 72.2955C83.4224 72.0909 83.1284 71.8267 82.9153 71.5029V75.9004H80.7294V65.3669H82.9153V66.3768ZM86.0345 68.9207C86.0345 68.3752 85.8811 67.9491 85.5743 67.6423C85.276 67.327 84.9053 67.1693 84.4621 67.1693C84.0275 67.1693 83.6568 67.327 83.35 67.6423C83.0517 67.9576 82.9026 68.388 82.9026 68.9334C82.9026 69.4789 83.0517 69.9092 83.35 70.2246C83.6568 70.5399 84.0275 70.6975 84.4621 70.6975C84.8968 70.6975 85.2675 70.5399 85.5743 70.2246C85.8811 69.9007 86.0345 69.4661 86.0345 68.9207ZM88.971 68.9207C88.971 68.1877 89.1073 67.5443 89.38 66.9904C89.6613 66.4364 90.0405 66.0103 90.5178 65.712C90.995 65.4138 91.5276 65.2646 92.1157 65.2646C92.6185 65.2646 93.0574 65.3669 93.4324 65.5714C93.8159 65.7759 94.1099 66.0444 94.3144 66.3768V65.3669H96.5004V72.5H94.3144V71.4901C94.1014 71.8225 93.8031 72.0909 93.4196 72.2955C93.0446 72.5 92.6057 72.6023 92.1029 72.6023C91.5234 72.6023 90.995 72.4531 90.5178 72.1548C90.0405 71.848 89.6613 71.4177 89.38 70.8637C89.1073 70.3013 88.971 69.6536 88.971 68.9207ZM94.3144 68.9334C94.3144 68.388 94.161 67.9576 93.8542 67.6423C93.5559 67.327 93.1895 67.1693 92.7548 67.1693C92.3202 67.1693 91.9495 67.327 91.6427 67.6423C91.3444 67.9491 91.1953 68.3752 91.1953 68.9207C91.1953 69.4661 91.3444 69.9007 91.6427 70.2246C91.9495 70.5399 92.3202 70.6975 92.7548 70.6975C93.1895 70.6975 93.5559 70.5399 93.8542 70.2246C94.161 69.9092 94.3144 69.4789 94.3144 68.9334ZM100.268 66.5557C100.523 66.1637 100.843 65.8569 101.227 65.6353C101.61 65.4052 102.036 65.2902 102.505 65.2902V67.604H101.904C101.359 67.604 100.95 67.7233 100.677 67.9619C100.404 68.192 100.268 68.6011 100.268 69.1891V72.5H98.0818V65.3669H100.268V66.5557Z" fill="#FFFEF3"/>
<path d="M27.9551 3.3412L1.89268 50.0587C1.04438 51.5793 2.14368 53.4513 3.88489 53.4513H124.873C126.602 53.4513 127.702 51.6028 126.878 50.0828L101.523 3.31399C100.706 1.80668 98.5801 1.70582 97.6239 3.12898L82.1413 26.1718C81.2909 27.4375 79.4621 27.5286 78.4901 26.3537L66.0976 11.3749C65.1886 10.2761 63.5057 10.2714 62.5905 11.365L50.0777 26.3164C49.0872 27.5001 47.2316 27.3789 46.4034 26.0766L31.8723 3.22838C30.9451 1.77052 28.7968 1.8324 27.9551 3.3412Z" stroke="#FFFEF3" stroke-width="2.925"/>
<line x1="97.7141" y1="52.9843" x2="97.7141" y2="33.5947" stroke="#FFFEF3" stroke-width="1.4625" stroke-linecap="round"/>
<path d="M104.111 36.1196C104.4 36.2599 104.405 36.6701 104.119 36.8172L97.9875 39.9749L97.9875 33.1499L104.111 36.1196Z" fill="#FFFEF3"/>
</svg>
