<svg width="1074" height="300" viewBox="0 0 1074 300" fill="none" xmlns="http://www.w3.org/2000/svg">
<path fill-rule="evenodd" clip-rule="evenodd" d="M310.175 23.3742C308.874 23.6641 308.01 24.0498 306.1 25.1908C302.497 27.3444 298.779 29.326 295.536 30.8226C286.472 35.0048 273.497 38.5148 264.062 39.3373C255.538 40.0801 247.294 39.8458 232.769 38.4479C218.876 37.1108 211.808 37.0345 203.4 38.1308C186.702 40.308 171.622 46.9288 153.512 60.0336C147.278 64.5447 141.358 69.3056 129.401 79.4254C115.904 90.8485 111.438 94.3305 103.545 99.5835C100.923 101.328 97.6012 103.378 96.4634 103.953C96.0464 104.164 95.8658 104.198 95.7371 104.092C95.5082 103.902 94.7551 101.521 94.2007 99.233C93.9537 98.2135 93.4629 95.6249 93.1102 93.4804C91.6625 84.6792 91.0348 81.741 89.9014 78.4599C87.5087 71.5332 82.9854 66.8917 77.1179 65.3422C75.6856 64.9639 72.8091 64.8727 71.1889 65.154C67.82 65.7393 63.5695 67.8517 58.5226 71.449C50.2723 77.3297 43.4434 83.3487 33.2676 93.7089C31.2451 95.7679 29.5665 97.429 29.5374 97.4C29.4694 97.3321 30.6037 92.5968 32.0535 86.897C33.4569 81.3794 35.1285 75.2896 36.7321 69.8523C38.2167 64.8185 38.2726 64.5492 38.1786 62.8891C37.9176 58.2826 34.7601 54.2536 30.5214 53.1186C29.2084 52.767 26.158 52.8028 24.8301 53.1854C21.8666 54.0392 19.5291 55.9247 18.1612 58.5646C16.8562 61.0833 11.6992 79.6079 8.79691 92.2021C6.86639 100.58 4.94946 110.417 4.41389 114.696C3.71584 120.273 5.16684 124.829 8.69803 128.15C14.1467 133.273 22.5353 132.972 29.1869 127.414C31.9991 125.065 37.4068 119.819 45.2955 111.787C55.152 101.752 59.5944 97.5146 64.7474 93.2321C66.6166 91.6786 70.4734 88.7506 70.6503 88.7506C70.8018 88.7506 71.5733 92.7908 72.2737 97.2515C73.5747 105.539 74.6542 109.395 76.8998 113.78C79.4873 118.831 82.6443 122.274 86.3428 124.078C88.8407 125.297 90.8975 125.803 93.783 125.911C100.018 126.144 104.018 124.58 114.203 117.924C122.365 112.591 129.901 106.721 145.175 93.7982C158.194 82.7848 162.44 79.4373 169.286 74.7911C175.838 70.3446 183.043 66.3004 188.692 63.8988C193.034 62.0533 199.268 60.2314 204.426 59.3006C207.386 58.7667 209.429 58.6451 215.327 58.6519C221.014 58.6583 223.204 58.7711 230.14 59.4152C239.694 60.3023 242.037 60.5116 244.504 60.6988C248.181 60.9776 256.497 61.083 259.963 60.895C276.081 60.0201 290.61 56.3668 305.742 49.3845C309.746 47.5371 315.291 44.5376 317.948 42.7824C322.22 39.9596 324.119 34.5518 322.419 30.0482C322.102 29.2092 321.153 27.7234 320.384 26.8628C319.122 25.4506 316.791 24.0411 314.891 23.5418C313.54 23.1868 311.362 23.1095 310.175 23.3742Z" fill="white"/>
<path d="M359.427 12.3334C359.427 19.1449 353.888 24.6667 347.054 24.6667C340.22 24.6667 334.681 19.1449 334.681 12.3334C334.681 5.52184 340.22 0 347.054 0C353.888 0 359.427 5.52184 359.427 12.3334Z" fill="white"/>
<path d="M164.972 190.963L135.972 297.781H99.6744L82.7739 228.483L65.2973 297.781H29.1917L0 190.963H32.8407L48.0127 267.344L66.0655 190.963H100.827L119.072 266.961L134.052 190.963H164.972Z" fill="white"/>
<path d="M283.316 190.963V297.781H250.475V283.232C247.146 287.954 242.601 291.783 236.839 294.718C231.206 297.526 224.932 298.93 218.018 298.93C209.824 298.93 202.59 297.143 196.317 293.57C190.043 289.869 185.178 284.573 181.721 277.681C178.264 270.789 176.535 262.686 176.535 253.369V190.963H209.184V248.966C209.184 256.113 211.04 261.665 214.753 265.621C218.466 269.577 223.46 271.555 229.733 271.555C236.135 271.555 241.192 269.577 244.905 265.621C248.618 261.665 250.475 256.113 250.475 248.966V190.963H283.316Z" fill="white"/>
<path d="M372.202 189.814C384.749 189.814 394.736 193.898 402.162 202.066C409.716 210.106 413.493 221.209 413.493 235.375V297.781H380.844V239.778C380.844 232.631 378.988 227.079 375.275 223.123C371.562 219.167 366.569 217.189 360.295 217.189C354.021 217.189 349.028 219.167 345.315 223.123C341.602 227.079 339.746 232.631 339.746 239.778V297.781H306.905V190.963H339.746V205.129C343.074 200.407 347.556 196.706 353.189 194.026C358.823 191.218 365.16 189.814 372.202 189.814Z" fill="white"/>
<path d="M429.784 244.181C429.784 233.205 431.833 223.57 435.93 215.275C440.155 206.979 445.853 200.598 453.023 196.132C460.192 191.665 468.195 189.431 477.029 189.431C484.071 189.431 490.472 190.899 496.234 193.834C502.124 196.77 506.733 200.726 510.062 205.703V156.122H542.902V297.781H510.062V282.467C506.989 287.572 502.572 291.655 496.81 294.718C491.177 297.781 484.583 299.313 477.029 299.313C468.195 299.313 460.192 297.079 453.023 292.613C445.853 288.018 440.155 281.573 435.93 273.278C431.833 264.855 429.784 255.156 429.784 244.181ZM510.062 244.372C510.062 236.204 507.757 229.759 503.148 225.038C498.667 220.316 493.161 217.955 486.631 217.955C480.102 217.955 474.532 220.316 469.923 225.038C465.442 229.632 463.201 236.013 463.201 244.181C463.201 252.348 465.442 258.857 469.923 263.707C474.532 268.428 480.102 270.789 486.631 270.789C493.161 270.789 498.667 268.428 503.148 263.707C507.757 258.985 510.062 252.54 510.062 244.372Z" fill="white"/>
<path d="M667.68 242.649C667.68 245.712 667.488 248.903 667.104 252.221H592.78C593.292 258.857 595.405 263.962 599.118 267.535C602.959 270.981 607.632 272.704 613.138 272.704C621.332 272.704 627.029 269.258 630.23 262.367H665.183C663.391 269.386 660.126 275.703 655.389 281.318C650.779 286.934 644.954 291.336 637.912 294.527C630.87 297.717 622.996 299.313 614.29 299.313C603.791 299.313 594.445 297.079 586.25 292.613C578.056 288.146 571.655 281.765 567.045 273.47C562.436 265.174 560.131 255.475 560.131 244.372C560.131 233.269 562.372 223.57 566.853 215.275C571.462 206.979 577.864 200.598 586.058 196.132C594.252 191.665 603.663 189.431 614.29 189.431C624.661 189.431 633.879 191.601 641.945 195.94C650.011 200.279 656.285 206.469 660.766 214.509C665.375 222.549 667.68 231.929 667.68 242.649ZM634.071 234.035C634.071 228.419 632.151 223.953 628.31 220.635C624.469 217.317 619.667 215.657 613.906 215.657C608.4 215.657 603.727 217.253 599.886 220.443C596.173 223.634 593.868 228.164 592.972 234.035H634.071Z" fill="white"/>
<path d="M717.846 208.766C721.687 202.895 726.488 198.301 732.25 194.983C738.011 191.537 744.413 189.814 751.455 189.814V224.463H742.428C734.234 224.463 728.088 226.25 723.991 229.823C719.894 233.269 717.846 239.395 717.846 248.201V297.781H685.005V190.963H717.846V208.766Z" fill="white"/>
<path d="M820.926 218.146H803.257V297.781H770.417V218.146H758.51V190.963H770.417V187.9C770.417 174.755 774.194 164.801 781.748 158.037C789.302 151.145 800.377 147.699 814.972 147.699C817.405 147.699 819.198 147.763 820.35 147.891V175.648C814.076 175.266 809.659 176.159 807.098 178.328C804.538 180.498 803.257 184.39 803.257 190.006V190.963H820.926V218.146Z" fill="white"/>
<path d="M829.828 244.181C829.828 233.205 831.876 223.57 835.974 215.275C840.199 206.979 845.896 200.598 853.066 196.132C860.236 191.665 868.238 189.431 877.072 189.431C884.626 189.431 891.22 190.963 896.854 194.026C902.615 197.089 907.032 201.109 910.105 206.086V190.963H942.946V297.781H910.105V282.658C906.904 287.635 902.423 291.655 896.662 294.718C891.028 297.781 884.434 299.313 876.88 299.313C868.174 299.313 860.236 297.079 853.066 292.613C845.896 288.018 840.199 281.573 835.974 273.278C831.876 264.855 829.828 255.156 829.828 244.181ZM910.105 244.372C910.105 236.204 907.801 229.759 903.191 225.038C898.71 220.316 893.205 217.955 886.675 217.955C880.145 217.955 874.576 220.316 869.967 225.038C865.485 229.632 863.245 236.013 863.245 244.181C863.245 252.348 865.485 258.857 869.967 263.707C874.576 268.428 880.145 270.789 886.675 270.789C893.205 270.789 898.71 268.428 903.191 263.707C907.801 258.985 910.105 252.54 910.105 244.372Z" fill="white"/>
<path d="M1032 189.814C1044.55 189.814 1054.54 193.898 1061.96 202.066C1069.52 210.106 1073.29 221.209 1073.29 235.375V297.781H1040.64V239.778C1040.64 232.631 1038.79 227.079 1035.07 223.123C1031.36 219.167 1026.37 217.189 1020.09 217.189C1013.82 217.189 1008.83 219.167 1005.11 223.123C1001.4 227.079 999.545 232.631 999.545 239.778V297.781H966.705V190.963H999.545V205.129C1002.87 200.407 1007.36 196.706 1012.99 194.026C1018.62 191.218 1024.96 189.814 1032 189.814Z" fill="white"/>
</svg>
